<svg width="123" height="23" viewBox="0 0 123 23" fill="none" xmlns="http://www.w3.org/2000/svg">
<path d="M11.5 0L14.0819 7.9463H22.4371L15.6776 12.8574L18.2595 20.8037L11.5 15.8926L4.74047 20.8037L7.32238 12.8574L0.56285 7.9463H8.91809L11.5 0Z" fill="#FBB004"/>
<path d="M36.5 0L39.0819 7.9463H47.4371L40.6776 12.8574L43.2595 20.8037L36.5 15.8926L29.7405 20.8037L32.3224 12.8574L25.5628 7.9463H33.9181L36.5 0Z" fill="#FBB004"/>
<path d="M61.5 0L64.0819 7.9463H72.4371L65.6776 12.8574L68.2595 20.8037L61.5 15.8926L54.7405 20.8037L57.3224 12.8574L50.5628 7.9463H58.9181L61.5 0Z" fill="#FBB004"/>
<path d="M86.5 0L89.0819 7.9463H97.4371L90.6776 12.8574L93.2595 20.8037L86.5 15.8926L79.7405 20.8037L82.3224 12.8574L75.5628 7.9463H83.9181L86.5 0Z" fill="#FBB004"/>
<path d="M111.5 0L114.082 7.9463H122.437L115.678 12.8574L118.26 20.8037L111.5 15.8926L104.74 20.8037L107.322 12.8574L100.563 7.9463H108.918L111.5 0Z" fill="#FBB004"/>
</svg>
