<svg width="48" height="59" viewBox="0 0 48 59" fill="none" xmlns="http://www.w3.org/2000/svg">
<g clip-path="url(#clip0_191_336)">
<path fill-rule="evenodd" clip-rule="evenodd" d="M47.0861 39.2665C45.3261 37.5518 43.3067 36.0952 41.0933 34.9575C39.7188 32.0442 38.4194 29.6517 37.2097 27.7822C36.8582 27.238 36.3782 26.8369 35.8012 26.5977C35.1685 27.1817 34.4897 27.7212 33.7673 28.1997C34.0776 28.2396 34.3855 28.2865 34.6958 28.3264C35.0594 28.3803 35.2945 28.5328 35.4861 28.826C36.7515 30.7682 37.8424 32.8676 38.8533 34.9575H9.14667C10.1576 32.8699 11.2558 30.7682 12.5139 28.826C12.7055 28.5328 12.9479 28.3803 13.3042 28.3264C13.6145 28.2865 13.9152 28.2396 14.2255 28.1997C13.5103 27.7212 12.8315 27.1817 12.1988 26.5977C11.6218 26.8369 11.1467 27.2357 10.7903 27.7822C9.58061 29.6517 8.28848 32.0442 6.90667 34.9575C4.69333 36.0952 2.67394 37.5518 0.913939 39.2665C0.30303 39.8576 0 40.5824 0 41.4198V51.0017C0 52.6906 1.41576 54.0605 3.15394 54.0605H15.0158C15.6073 53.4412 16.417 53.0964 17.3309 53.0964H30.6764C31.583 53.0964 32.3952 53.4412 32.9842 54.0605H44.8461C46.5842 54.0605 48 52.6906 48 51.0017V41.4198C48 40.5824 47.697 39.8576 47.0861 39.2665ZM4.78303 33.8598L4.41212 33.6534H2.59879C2.04121 33.6534 1.58061 33.2147 1.58061 32.6682C1.58061 32.1217 2.04121 31.683 2.59879 31.683H4.67394V31.6901C4.84606 31.6901 5.01818 31.7299 5.18303 31.8167L5.96606 32.2624C5.76 32.6869 5.54667 33.1139 5.34788 33.5384C5.15636 33.644 4.9697 33.7519 4.78545 33.8574L4.78303 33.8598ZM42.0364 32.2647L42.8194 31.8191C42.9842 31.7323 43.1564 31.6924 43.3285 31.6924V31.6854H45.4036C45.9612 31.6854 46.4218 32.124 46.4218 32.6705C46.4218 33.2171 45.9612 33.6557 45.4036 33.6557H43.5903L43.2267 33.8621C43.0352 33.7566 42.8485 33.6487 42.6642 33.5431C42.4582 33.1185 42.2521 32.6916 42.0388 32.2671L42.0364 32.2647ZM45.5685 55.9745V57.5367C45.5685 58.3413 44.8873 59.0004 44.063 59.0004H38.0364C37.2048 59.0004 36.5236 58.3413 36.5236 57.5367V56.0285H44.8461C45.0933 56.0285 45.3333 56.0074 45.5685 55.9745ZM11.4764 56.0285V57.5367C11.4764 58.3413 10.7952 59.0004 9.97091 59.0004H3.93697C3.11273 59.0004 2.43152 58.3413 2.43152 57.5367V55.9745C2.66424 56.0074 2.91152 56.0285 3.15394 56.0285H11.4764ZM36.3588 44.9969C38.4752 44.9899 40.64 44.8374 42.8388 44.5512C44.2206 44.3706 44.8727 41.0468 43.0182 40.7278C40.9358 40.376 37.3697 41.8373 35.6994 43.5004C35.4376 43.7607 35.3624 44.1243 35.5127 44.4644C35.6582 44.7975 35.9806 45.0039 36.3588 44.9969ZM11.6412 44.9969C9.52485 44.9899 7.36727 44.8374 5.16121 44.5512C3.77939 44.3706 3.12727 41.0468 4.98182 40.7278C7.06424 40.376 10.6303 41.8373 12.3006 43.5004C12.5624 43.7607 12.6376 44.1243 12.4873 44.4644C12.3418 44.7975 12.0194 45.0039 11.6412 44.9969ZM17.9903 45.5106C17.4279 45.4848 16.9939 45.025 17.0206 44.4855C17.04 43.946 17.5152 43.5285 18.0727 43.5473C20.0049 43.6341 21.983 43.674 24.0024 43.674C26.0218 43.674 27.9952 43.6341 29.9249 43.5473C30.4824 43.5262 30.9552 43.946 30.977 44.4855C31.0036 45.025 30.5721 45.4824 30.0073 45.5106C27.9588 45.5974 25.9588 45.6373 24.0024 45.6373C22.0461 45.6373 20.0364 45.5974 17.9903 45.5106ZM39.377 50.3426C38.8194 50.3426 38.3588 49.904 38.3588 49.3574C38.3588 48.8109 38.8194 48.3793 39.377 48.3793H42.463C43.0255 48.3793 43.4812 48.8179 43.4812 49.3574C43.4812 49.8969 43.0279 50.3426 42.463 50.3426H39.377ZM5.53939 50.3426C4.97697 50.3426 4.52121 49.904 4.52121 49.3574C4.52121 48.8109 4.97455 48.3793 5.53939 48.3793H8.62545C9.18303 48.3793 9.64364 48.8179 9.64364 49.3574C9.64364 49.8969 9.18303 50.3426 8.62545 50.3426H5.53939Z" fill="#038749"/>
<path fill-rule="evenodd" clip-rule="evenodd" d="M9.53911 16.3722L9.5585 16.3581L9.5779 16.344L9.59971 16.33L9.61911 16.3229V16.3159L9.6385 16.3088L9.66032 16.2948L9.67971 16.2807L9.69911 16.2737H9.70638L9.72093 16.2596H9.7282L9.74759 16.2525L9.76941 16.2455L9.79123 16.2314H9.7985L9.8179 16.2244H9.82517L9.83971 16.2174H9.84699L9.86153 16.2103H9.87608L9.89062 16.2033H9.90517C9.92699 16.1963 9.95365 16.1892 9.97305 16.1892L9.98032 16.1822H10.007L10.0264 16.1751H10.2543L10.2737 16.1822H10.3003L10.3197 16.1892H10.327C10.3415 16.1892 10.3609 16.1963 10.3755 16.2033H10.3949L10.4215 16.2103L10.4434 16.2174L10.47 16.2244V16.2314L10.4918 16.2385L10.533 16.2525H10.5403L10.5621 16.2666L10.5815 16.2737L10.5888 16.2807L10.6034 16.2877H10.6106L10.6252 16.3018L10.647 16.3088H10.6543L10.6615 16.3159L13.7888 18.1103C14.2688 18.3824 14.4337 18.9876 14.1452 19.4544C13.864 19.9188 13.2385 20.0783 12.7561 19.7992L11.8276 19.2667C12.0603 19.832 12.3367 20.3832 12.6591 20.9157C14.4603 23.9345 17.3597 25.9635 20.5888 26.8009C23.8179 27.6383 27.3791 27.2865 30.4991 25.5436C31.4543 25.0112 32.3124 24.3732 33.0761 23.6624C33.8518 22.9306 34.5258 22.112 35.0834 21.2277C35.3791 20.7679 36.0046 20.6225 36.4846 20.9087C36.9597 21.1878 37.11 21.793 36.8143 22.2574C36.1743 23.2684 35.3912 24.2113 34.4846 25.0628C33.6118 25.8814 32.6155 26.618 31.51 27.2372C27.9027 29.2521 23.7937 29.6649 20.0603 28.7009C16.3367 27.7298 12.9888 25.3818 10.8991 21.8915C10.4724 21.1737 10.1161 20.4348 9.82759 19.6842L9.8082 19.6303L9.16335 20.6882C8.87486 21.1526 8.25668 21.3074 7.76941 21.033C7.28941 20.7538 7.12941 20.1557 7.41305 19.6889L9.26759 16.656C9.34274 16.5364 9.43244 16.4425 9.54153 16.3628L9.53911 16.3722ZM24.9791 12.3705C25.2676 12.4901 25.5294 12.6637 25.7476 12.8748V12.8819C25.9682 13.0953 26.1452 13.3416 26.2761 13.6207H26.4409L29.8227 10.3439C30.2203 9.95918 30.8676 9.95918 31.2652 10.3439C31.6579 10.7286 31.6579 11.3548 31.2652 11.7325L29.3137 13.6207H34.2276C34.79 13.6207 35.2458 14.0594 35.2458 14.6059C35.2458 15.1524 34.7924 15.5911 34.2276 15.5911H29.3137L31.2312 17.4394C31.624 17.8241 31.624 18.4504 31.2312 18.8281C30.8337 19.2128 30.1864 19.2128 29.7888 18.8281L26.4433 15.5911H26.2785C26.1476 15.8632 25.9682 16.1165 25.75 16.33V16.337C25.5294 16.5434 25.27 16.717 24.9815 16.8413V17.0336L28.3221 20.2589C28.7149 20.6436 28.7149 21.2628 28.3221 21.6475C27.9246 22.0322 27.2773 22.0322 26.887 21.6475L24.984 19.8132V24.535C24.984 25.0792 24.5306 25.5202 23.973 25.5202C23.4155 25.5202 22.9549 25.0816 22.9549 24.535V19.7804L21.0373 21.6358C20.6397 22.0158 19.9997 22.0158 19.6021 21.6358C19.2046 21.2511 19.2046 20.6248 19.6021 20.2472L22.9549 17.0032V16.8436C22.6664 16.717 22.4046 16.5434 22.1864 16.3323C21.9658 16.1188 21.7888 15.8679 21.6579 15.5934H21.4591L18.1258 18.8187C17.7282 19.1987 17.0882 19.1987 16.6906 18.8187C16.293 18.434 16.293 17.8077 16.6906 17.4301L18.5864 15.5958H13.7064C13.1488 15.5958 12.6882 15.1501 12.6882 14.6106C12.6882 14.0711 13.1488 13.6254 13.7064 13.6254H18.5864L16.6543 11.7559C16.2567 11.3713 16.2567 10.745 16.6543 10.3673C17.0518 9.98264 17.6918 9.98264 18.0894 10.3673L21.4567 13.6254H21.6555C21.7864 13.3463 21.9658 13.093 22.184 12.8819H22.1912C22.4046 12.6684 22.6664 12.4972 22.9549 12.3775V12.211L19.5682 8.93883C19.1706 8.55414 19.1706 7.92785 19.5682 7.5502C19.9658 7.16552 20.6058 7.16552 21.0034 7.5502L22.9549 9.43141V4.67679C22.9549 4.13729 23.4082 3.69162 23.973 3.69162C24.5379 3.69162 24.984 4.13729 24.984 4.67679V9.39857L26.9161 7.52909C27.3137 7.14441 27.9609 7.14441 28.3585 7.52909C28.7512 7.91378 28.7512 8.54007 28.3585 8.91772L24.984 12.1758V12.3752L24.9791 12.3705ZM24.3124 14.2587C24.23 14.179 24.1064 14.125 23.9682 14.125C23.8227 14.125 23.6991 14.179 23.6167 14.2587L23.6094 14.2658C23.527 14.3526 23.4712 14.4652 23.4712 14.6059C23.4712 14.7466 23.527 14.8592 23.6094 14.939L23.6167 14.946C23.6991 15.0258 23.8227 15.0797 23.9682 15.0797C24.1137 15.0797 24.23 15.0258 24.3124 14.946L24.3197 14.939C24.4021 14.8592 24.4579 14.7396 24.4579 14.6059C24.4579 14.4652 24.4021 14.3526 24.3197 14.2658L24.3124 14.2587ZM38.7706 8.51427C39.0591 8.04279 39.6773 7.89032 40.1646 8.16946C40.6446 8.44155 40.8046 9.04673 40.5209 9.51351L38.6664 12.5394C38.5912 12.659 38.5015 12.7528 38.3924 12.8326L38.373 12.8467L38.3585 12.8607H38.3512L38.3367 12.8748H38.3294L38.3076 12.8889L38.2882 12.903L38.2664 12.91L38.247 12.9241L38.2276 12.9382L38.2058 12.9452H38.1985L38.1767 12.9522V12.9593L38.1573 12.9663L38.1355 12.9733H38.1282L38.1088 12.9804H38.1015L38.087 12.9874L38.0797 12.9944H38.0652L38.0506 13.0015H38.0361L38.0288 13.0085H38.0215C37.9997 13.0156 37.973 13.0156 37.9537 13.0226H37.927L37.9197 13.0296H37.8712L37.8518 13.0367H37.7209L37.6991 13.0296H37.6506L37.6434 13.0226H37.6215L37.6021 13.0156H37.5949C37.5803 13.0156 37.5609 13.0085 37.5464 13.0085L37.527 13.0015L37.5003 12.9944L37.4809 12.9874L37.4591 12.9804H37.4518L37.43 12.9733L37.3888 12.9546H37.3815L37.3597 12.9405L37.3403 12.9335H37.333L37.3185 12.9194H37.3112L37.2967 12.9123L37.2773 12.8983L37.2627 12.8912L34.1355 11.0968C33.6555 10.8247 33.4906 10.2195 33.7791 9.75277C34.0603 9.28833 34.6858 9.13352 35.1682 9.40796L36.0967 9.94042C35.864 9.38215 35.5876 8.83093 35.2652 8.29143C33.464 5.27258 30.5718 3.2436 27.3355 2.40621C24.1064 1.56881 20.5524 1.92066 17.4252 3.66347L17.4324 3.67051C16.47 4.20297 15.6118 4.84099 14.8482 5.55172C14.0724 6.27652 13.3985 7.09984 12.8409 7.97946C12.5452 8.4439 11.9197 8.58463 11.4397 8.3055C10.9646 8.01933 10.8143 7.41416 11.11 6.94972C11.75 5.94578 12.533 5.00049 13.4397 4.14433C14.3124 3.32101 15.3088 2.58917 16.4143 1.96992C20.0312 -0.0567207 24.1403 -0.469554 27.8712 0.501543C31.5949 1.4656 34.9427 3.81359 37.0324 7.30391C37.4591 8.02168 37.8155 8.76056 38.104 9.51116L38.1234 9.56511L38.7682 8.51427H38.7706Z" fill="#038749"/>
</g>
<defs>
<clipPath id="clip0_191_336">
<rect width="48" height="59" fill="white"/>
</clipPath>
</defs>
</svg>
