<svg width="61" height="60" viewBox="0 0 61 60" fill="none" xmlns="http://www.w3.org/2000/svg">
<g clip-path="url(#clip0_191_342)">
<path d="M60.9857 29.1835C58.7872 14.9917 48.3126 3.55107 34.3014 0.036977C33.6798 -0.120371 33.0372 0.238191 32.8482 0.85137L30.1001 9.76297L29.3874 12.0736L28.9279 13.5632C28.9231 13.5794 28.9231 13.5946 28.9183 13.6099C28.9145 13.627 28.9068 13.6414 28.903 13.6585C28.8972 13.6824 28.8982 13.7072 28.8943 13.7319C28.8876 13.772 28.8828 13.812 28.88 13.8521C28.878 13.8922 28.879 13.9313 28.8809 13.9704C28.8828 14.0094 28.8847 14.0485 28.8905 14.0867C28.8963 14.1258 28.9049 14.1639 28.9145 14.2021C28.9231 14.2393 28.9337 14.2755 28.9461 14.3117C28.9596 14.3489 28.9749 14.3842 28.9912 14.4195C29.0075 14.4548 29.0238 14.4882 29.043 14.5215C29.0632 14.554 29.0843 14.5854 29.1063 14.6169C29.1293 14.6484 29.1533 14.6789 29.1792 14.7085C29.2042 14.7371 29.231 14.7638 29.2588 14.7895C29.2876 14.8162 29.3174 14.8429 29.349 14.8668C29.3797 14.8906 29.4123 14.9116 29.4449 14.9316C29.4795 14.9535 29.514 14.9736 29.5514 14.9917C29.5859 15.0088 29.6224 15.0231 29.6588 15.0365C29.6838 15.046 29.7058 15.0594 29.7308 15.067C29.748 15.0718 29.7653 15.0727 29.7826 15.0775C29.7979 15.0813 29.8113 15.088 29.8257 15.0909C38.0356 16.8799 44.3146 23.6363 45.4522 31.9042C45.4532 31.9099 45.457 31.9156 45.458 31.9213C45.4599 31.9337 45.458 31.9442 45.4609 31.9566C45.4743 32.03 45.5117 32.092 45.5376 32.1607C45.5597 32.2198 45.5721 32.2828 45.6038 32.3362C45.646 32.4115 45.7064 32.4697 45.763 32.5326C45.8004 32.5736 45.8282 32.6213 45.8704 32.6575C45.9414 32.7167 46.0249 32.7558 46.1074 32.7977C46.1496 32.8196 46.1851 32.8511 46.2301 32.8683C46.3625 32.9169 46.5035 32.9446 46.6503 32.9446C46.705 32.9446 46.7596 32.9408 46.8153 32.9331C46.8249 32.9322 46.8325 32.9284 46.8412 32.9274C46.8498 32.9255 46.8594 32.9265 46.868 32.9245L48.4325 32.6423L50.819 32.2103L60.0063 30.55C60.6509 30.4337 61.0854 29.8281 60.9857 29.1835ZM37.4476 10.7595C36.6496 10.7595 36.003 10.1168 36.003 9.32335C36.003 8.52994 36.6496 7.8872 37.4476 7.8872C38.2457 7.8872 38.8922 8.52994 38.8922 9.32335C38.8922 10.1168 38.2457 10.7595 37.4476 10.7595ZM43.2144 14.2526C42.4163 14.2526 41.7698 13.6099 41.7698 12.8165C41.7698 12.0231 42.4163 11.3803 43.2144 11.3803C44.0124 11.3803 44.659 12.0231 44.659 12.8165C44.659 13.6099 44.0124 14.2526 43.2144 14.2526ZM48.3951 19.6654C47.597 19.6654 46.9505 19.0226 46.9505 18.2292C46.9505 17.4358 47.597 16.7931 48.3951 16.7931C49.1931 16.7931 49.8397 17.4358 49.8397 18.2292C49.8397 19.0226 49.1931 19.6654 48.3951 19.6654ZM51.5566 25.7771C50.7586 25.7771 50.1121 25.1344 50.1121 24.341C50.1121 23.5476 50.7586 22.9048 51.5566 22.9048C52.3547 22.9048 53.0012 23.5476 53.0012 24.341C53.0012 25.1344 52.3547 25.7771 51.5566 25.7771Z" fill="#038749"/>
<path d="M25.4777 22.1094C18.51 22.1094 12.8411 27.7453 12.8411 34.6733C12.8411 41.6014 18.51 47.2373 25.4777 47.2373C32.4454 47.2373 38.1153 41.6014 38.1153 34.6733C38.1153 27.7453 32.4464 22.1094 25.4777 22.1094ZM31.7308 27.0196C32.5288 27.0196 33.1754 27.6623 33.1754 28.4557C33.1754 29.2491 32.5288 29.8919 31.7308 29.8919C30.9327 29.8919 30.2862 29.2491 30.2862 28.4557C30.2862 27.6623 30.9327 27.0196 31.7308 27.0196ZM25.4777 24.4448C26.2758 24.4448 26.9223 25.0875 26.9223 25.881C26.9223 26.6744 26.2758 27.3171 25.4777 27.3171C24.6796 27.3171 24.0331 26.6744 24.0331 25.881C24.0331 25.0875 24.6796 24.4448 25.4777 24.4448ZM19.2236 27.0196C20.0217 27.0196 20.6682 27.6623 20.6682 28.4557C20.6682 29.2491 20.0217 29.8919 19.2236 29.8919C18.4256 29.8919 17.7791 29.2491 17.7791 28.4557C17.7791 27.6623 18.4256 27.0196 19.2236 27.0196ZM16.6338 36.1095C15.8357 36.1095 15.1892 35.4668 15.1892 34.6733C15.1892 33.8799 15.8357 33.2372 16.6338 33.2372C17.4318 33.2372 18.0784 33.8799 18.0784 34.6733C18.0784 35.4668 17.4318 36.1095 16.6338 36.1095ZM19.2236 42.3271C18.4256 42.3271 17.7791 41.6844 17.7791 40.891C17.7791 40.0975 18.4256 39.4548 19.2236 39.4548C20.0217 39.4548 20.6682 40.0975 20.6682 40.891C20.6682 41.6844 20.0217 42.3271 19.2236 42.3271ZM25.4777 44.9019C24.6796 44.9019 24.0331 44.2592 24.0331 43.4657C24.0331 42.6723 24.6796 42.0296 25.4777 42.0296C26.2758 42.0296 26.9223 42.6723 26.9223 43.4657C26.9223 44.2592 26.2758 44.9019 25.4777 44.9019ZM25.4777 40.0155C22.5147 40.0155 20.1042 37.6191 20.1042 34.6733C20.1042 31.7276 22.5147 29.3312 25.4777 29.3312C28.4407 29.3312 30.8512 31.7276 30.8512 34.6733C30.8512 37.6191 28.4407 40.0155 25.4777 40.0155ZM31.7308 42.3271C30.9327 42.3271 30.2862 41.6844 30.2862 40.891C30.2862 40.0975 30.9327 39.4548 31.7308 39.4548C32.5288 39.4548 33.1754 40.0975 33.1754 40.891C33.1754 41.6844 32.5288 42.3271 31.7308 42.3271ZM35.7662 34.6733C35.7662 35.4668 35.1197 36.1095 34.3216 36.1095C33.5236 36.1095 32.877 35.4668 32.877 34.6733C32.877 33.8799 33.5236 33.2372 34.3216 33.2372C35.1197 33.2372 35.7662 33.8799 35.7662 34.6733Z" fill="#038749"/>
<path d="M25.4776 31.7344C23.8498 31.7344 22.5251 33.0513 22.5251 34.6696C22.5251 36.2879 23.8498 37.6049 25.4776 37.6049C27.1054 37.6049 28.43 36.2879 28.43 34.6696C28.43 33.0513 27.1054 31.7344 25.4776 31.7344Z" fill="#038749"/>
<path d="M50.9312 33.6439L48.6905 34.0491L47.1327 34.3305C47.1154 34.3333 47.0982 34.3371 47.0809 34.3391H47.0761C47.0502 34.3448 47.0243 34.3486 46.9984 34.3514C46.8823 34.3667 46.7653 34.3743 46.6512 34.3743C46.3394 34.3743 46.0296 34.319 45.7313 34.2094L45.7169 34.2036C45.5749 34.1493 45.4656 34.0854 45.4023 34.0453C45.291 33.9891 45.1212 33.8985 44.9467 33.7535L44.9313 33.7402C44.8037 33.6315 44.7193 33.5256 44.6733 33.4665L44.6714 33.4636C44.6004 33.3873 44.4699 33.2462 44.3558 33.045C44.2637 32.8857 44.2157 32.7417 44.1898 32.6616C44.1524 32.5777 44.0843 32.4185 44.046 32.2125L44.0421 32.1905C44.0421 32.1905 44.0383 32.1629 44.0373 32.161C44.0354 32.1524 44.0297 32.1162 44.0297 32.1162L44.0268 32.0971C42.9707 24.4233 37.1425 18.1513 29.5226 16.4882C29.4861 16.4806 29.4535 16.472 29.4238 16.4634C29.3998 16.4586 29.3748 16.452 29.347 16.4443L29.3077 16.4329C29.2271 16.4081 29.1609 16.3814 29.1091 16.3575C29.0554 16.3366 28.9883 16.3089 28.9154 16.2736C28.8367 16.2355 28.759 16.1916 28.6794 16.142C28.6238 16.1077 28.5509 16.061 28.4713 15.9999C28.3907 15.938 28.3255 15.8798 28.2766 15.835C28.2084 15.772 28.148 15.71 28.0914 15.6452C28.0415 15.588 27.9926 15.526 27.9427 15.4583L27.9245 15.4325C27.8881 15.3801 27.8526 15.3267 27.819 15.2723L27.8065 15.2513L27.7941 15.2304C27.7451 15.1455 27.7097 15.0711 27.6838 15.0158C27.6473 14.9367 27.6176 14.8661 27.5917 14.7936L27.584 14.7726C27.5571 14.6944 27.5341 14.6153 27.5149 14.5361C27.5005 14.478 27.4804 14.3921 27.466 14.292C27.4497 14.1852 27.4459 14.0927 27.443 14.0364C27.4382 13.9458 27.4382 13.8638 27.442 13.7818L27.444 13.7484C27.4487 13.6836 27.4555 13.6187 27.4651 13.5529C27.4708 13.4929 27.4804 13.4194 27.5006 13.3336C27.5082 13.3021 27.5159 13.2726 27.5236 13.2468C27.5303 13.2192 27.537 13.1896 27.5466 13.1581L28.6631 9.53724C27.6185 9.40755 26.5557 9.33984 25.4757 9.33984C11.406 9.34366 0 20.6832 0 34.6719C0 48.6605 11.406 60.0001 25.4766 60.0001C39.5473 60.0001 50.9532 48.6605 50.9532 34.6719C50.9532 34.3276 50.9446 33.9853 50.9302 33.6439H50.9312ZM25.4776 49.6418C17.1747 49.6418 10.4199 42.9264 10.4199 34.6719C10.4199 26.4173 17.1747 19.7019 25.4776 19.7019C33.7805 19.7019 40.5353 26.4173 40.5353 34.6719C40.5353 42.9264 33.7805 49.6418 25.4776 49.6418Z" fill="#038749"/>
</g>
<defs>
<clipPath id="clip0_191_342">
<rect width="61" height="60" fill="white"/>
</clipPath>
</defs>
</svg>
