<svg width="37" height="61" viewBox="0 0 37 61" fill="none" xmlns="http://www.w3.org/2000/svg">
<g clip-path="url(#clip0_191_355)">
<path d="M17.4847 36.1866L15.3933 35.0664V51.2322C15.3894 51.276 15.3835 51.3198 15.3737 51.3618L15.3933 51.3508L17.4847 50.2307C18.7597 49.5483 19.462 48.4227 19.462 47.0581V39.3555C19.462 38.0128 18.74 36.8561 17.4847 36.1829V36.1866Z" fill="#038749"/>
<path d="M11.3267 53.8507C11.1811 53.9273 11.0237 53.9656 10.8663 53.9656C10.5456 53.9656 10.2347 53.8124 10.0655 53.5369C9.80974 53.1282 9.96124 52.6046 10.4019 52.3675L13.5459 50.6836V46.5422L11.3247 47.7317C11.1791 47.8083 11.0217 47.8448 10.8643 47.8448C10.5436 47.8448 10.2327 47.6916 10.0635 47.4179C9.80778 47.0093 9.95927 46.4838 10.4 46.2485L13.544 44.5664V40.4251L11.3227 41.6146C11.1771 41.6912 11.0197 41.7295 10.8623 41.7295C10.5416 41.7295 10.2308 41.5763 10.0616 41.3008C9.80581 40.8921 9.9573 40.3685 10.398 40.1313L13.542 38.4474V34.3006L11.3208 35.4901C11.1752 35.5686 11.0178 35.6051 10.8604 35.6051C10.5397 35.6051 10.2288 35.4518 10.0596 35.1782C9.80384 34.7695 9.95533 34.2441 10.396 34.0087L13.54 32.3248V29.5244C13.54 27.2567 11.5529 25.4141 9.1113 25.4141H4.41891C1.98713 25.4159 0 27.2585 0 29.5262V32.3248L3.144 34.0087C3.58471 34.2459 3.7362 34.7695 3.48043 35.1782C3.30926 35.4536 2.9984 35.6051 2.68164 35.6051C2.52425 35.6051 2.36488 35.5686 2.22126 35.4901L0 34.3024V38.4474L3.144 40.1313C3.58471 40.3685 3.7362 40.8903 3.48043 41.3008C3.30926 41.5763 2.9984 41.7295 2.68164 41.7295C2.52425 41.7295 2.36488 41.6912 2.22126 41.6146L0 40.4251V44.5646L3.144 46.2485C3.58471 46.4857 3.7362 47.0093 3.48043 47.4179C3.30926 47.6934 2.9984 47.8448 2.68164 47.8448C2.52425 47.8448 2.36488 47.8083 2.22126 47.7317L0 46.5422V50.6836L3.144 52.3675C3.58471 52.6046 3.7362 53.1264 3.48043 53.5369C3.30926 53.8124 2.9984 53.9656 2.68164 53.9656C2.52425 53.9656 2.36488 53.9291 2.22126 53.8507L0 52.6612V56.8938C0 59.1578 1.98713 61.0004 4.42678 61.0004H9.11916C11.5608 61.0004 13.5479 59.1578 13.5479 56.8938V52.8345C13.5479 52.7725 13.5558 52.7086 13.5696 52.6484L13.5479 52.6612L11.3267 53.8525V53.8507Z" fill="#038749"/>
<path d="M34.4954 28.0754C35.8765 28.0754 37 27.0337 37 25.7493C37 24.465 35.8765 23.4196 34.4954 23.4196H33.3798V22.5384H34.4954C35.8765 22.5384 37 21.493 37 20.2105C37 18.928 35.8765 17.8844 34.4954 17.8844H33.3798V16.7296H34.1334C34.6429 16.7296 35.0561 16.3465 35.0561 15.8739V14.1754C35.0561 12.4423 33.5864 11.0302 31.7764 11.0302H30.3441V10.1016C32.0715 9.11826 33.1595 7.34678 33.1595 5.44943C33.1595 2.44467 30.5231 0 27.2827 0C24.0423 0 21.4059 2.44467 21.4059 5.44943C21.4059 7.34678 22.4959 9.11826 24.2213 10.1016V11.0302H22.789C20.9829 11.0302 19.5132 12.4405 19.5132 14.1754V15.8739C19.5132 16.3465 19.9244 16.7296 20.4359 16.7296H21.1895V17.8844H20.0759C18.6928 17.8844 17.5674 18.928 17.5674 20.2105C17.5674 21.493 18.6928 22.5384 20.0759 22.5384H21.1895V23.4196H20.0759C18.6928 23.4196 17.5674 24.465 17.5674 25.7493C17.5674 27.0337 18.6928 28.0754 20.0759 28.0754H21.1895V28.9584H20.0759C18.6928 28.9584 17.5674 30.0019 17.5674 31.2845C17.5674 32.567 18.6928 33.6106 20.0759 33.6106H21.1895V34.7581C21.1895 36.141 22.4014 37.263 23.8908 37.263H24.117V40.1072H21.3036V46.3192H34.1314C34.641 46.3192 35.0541 45.9361 35.0541 45.4636V40.9646C35.0541 40.4921 34.641 40.1072 34.1314 40.1072H30.4503V37.263H30.6766C32.1679 37.263 33.3779 36.1392 33.3779 34.7581V33.6106H34.4934C35.8746 33.6106 36.998 32.5689 36.998 31.2845C36.998 30.0001 35.8746 28.9584 34.4934 28.9584H33.3779V28.0754H34.4934H34.4954ZM27.2866 2.81137C28.8567 2.81137 30.1355 3.99539 30.1355 5.45125C30.1355 6.90711 28.8567 8.09113 27.2866 8.09113C25.7166 8.09113 24.4358 6.90528 24.4358 5.45125C24.4358 3.99722 25.7146 2.81137 27.2866 2.81137ZM28.6048 40.1054H25.9665V37.2612H28.6048V40.1054ZM31.5344 34.7563C31.5344 35.1868 31.1409 35.5499 30.6785 35.5499H23.8947C23.4225 35.5499 23.0389 35.1941 23.0389 34.7563V33.6087H31.5363V34.7563H31.5344ZM31.5344 28.9566H23.0369V28.0736H31.5344V28.9566ZM31.5344 23.4214H23.0369V22.5402H31.5344V23.4214ZM31.5344 17.8862H23.0369V16.7314H31.5344V17.8862Z" fill="#038749"/>
</g>
<defs>
<clipPath id="clip0_191_355">
<rect width="37" height="61" fill="white"/>
</clipPath>
</defs>
</svg>
